<svg id="レイヤー_1" data-name="レイヤー 1" xmlns="http://www.w3.org/2000/svg" xmlns:xlink="http://www.w3.org/1999/xlink" viewBox="0 0 400 225"><defs><style>.cls-1{fill:none;}.cls-2{fill:#303030;}.cls-3{fill:url(#名称未設定グラデーション_6);}.cls-4{fill:#fff;}.cls-5{clip-path:url(#clip-path);}</style><linearGradient id="名称未設定グラデーション_6" x1="24.87" y1="112.5" x2="180.19" y2="112.5" gradientUnits="userSpaceOnUse"><stop offset="0" stop-color="#198be2"/><stop offset="1" stop-color="#4a43ee"/></linearGradient><clipPath id="clip-path"><path id="SVGID" class="cls-1" d="M166.06,69l14.14,62a6.4,6.4,0,0,1-1.24,5.42l-39.64,49.7a6.4,6.4,0,0,1-5,2.41H70.74a6.4,6.4,0,0,1-5-2.41L26.1,136.43A6.4,6.4,0,0,1,24.86,131L39,69a6.4,6.4,0,0,1,3.47-4.35L99.76,37.1a6.4,6.4,0,0,1,5.56,0L162.6,64.68A6.4,6.4,0,0,1,166.06,69Z"/></clipPath></defs><title>athenz_data</title><path class="cls-2" d="M235.26,107.22c-0.48-4-3.43-7.09-8.48-7.09-6,0-9.31,4.36-9.31,12v5.71c0,7.09,2.49,12.46,9.62,12.46,5.4,0,8.51-3.43,8.51-7.41v-2h-8.2v-8h19v9.17c0,9.21-6.26,17.65-19.55,17.65-14.6,0-20.9-9.45-20.9-21.8v-5.85c0-12.56,7.41-21.28,20.94-21.28,12.67,0,19.28,7.86,19.48,16.44H235.26Z"/><path class="cls-2" d="M263.52,139.41c-7.23,0-12.22-4.19-12.22-11.21,0-6.75,4.67-11,13.29-11h8.55v-3.08c0-3-1.87-4.67-5-4.67s-5,1.73-5.16,4.26H252.66c0.21-6,3.91-12.32,15.64-12.32,8.86,0,15.78,3.74,15.78,12.87v24.64H273.66v-4.43h-0.48C271.93,137,269,139.41,263.52,139.41Zm9.62-12.6v-3.63h-5.61c-3.43,0-5.29,1.66-5.29,4.15,0,2.91,2.49,4.36,5.09,4.36C270.48,131.69,273.14,129.75,273.14,126.81Z"/><path class="cls-2" d="M290.34,101.89h11.11v5.43H302a8.56,8.56,0,0,1,8.34-6,12.66,12.66,0,0,1,3.32.31v9.41a15.09,15.09,0,0,0-4-.42c-5.68,0-7.82,3.29-7.82,8.24v19.93H290.34v-37Z"/><path class="cls-2" d="M318.65,101.89h10.76v5.78H330c0.9-2.8,4-6.33,9.9-6.33,5.64,0,9,2.7,10.17,6.58h0.45c1.07-3.08,4.88-6.58,11.18-6.58,7.51,0,11.8,4.95,11.8,12.18v25.33H362.35v-22c0-4.67-2.39-6.51-5.43-6.51-3.39,0-5.57,2.25-5.57,6.75v21.73H340.76V117.08c0-5.09-2.6-6.71-5.5-6.71s-5.54,1.87-5.54,6.68v21.8H318.65v-37Z"/><g id="_グループ_" data-name="&lt;グループ&gt;"><path class="cls-3" d="M165.92,69.12L180,131a6.39,6.39,0,0,1-1.23,5.41L139.25,186a6.39,6.39,0,0,1-5,2.41H70.81a6.39,6.39,0,0,1-5-2.41L26.27,136.37A6.39,6.39,0,0,1,25,131L39.15,69.12a6.39,6.39,0,0,1,3.46-4.34L99.77,37.26a6.39,6.39,0,0,1,5.54,0l57.15,27.52A6.39,6.39,0,0,1,165.92,69.12Z"/></g><path class="cls-4" d="M102.23,103.28c-1.45.24-1.72,1.63-1.33,2.85a0.61,0.61,0,0,0,.15.27,0.56,0.56,0,0,0,.32.11,2.69,2.69,0,0,0,3-2.21C104.52,103.12,103,103.16,102.23,103.28Z"/><path class="cls-4" d="M111.5,168a3.6,3.6,0,0,1,2.52,1.29c0.76,2.72-.68,4.47-2.07,4.76a4.15,4.15,0,0,1-2.78-4.79A2.92,2.92,0,0,1,111.5,168Z"/><path class="cls-4" d="M119.21,165.49c2.39,8.71-2.19,14.3-6.68,15.27h-0.17c-4.65-1-10.09-6.75-8.92-15.5a9.44,9.44,0,0,1,7.57-4.1c4.39,0,7.46,3.36,8.1,4.13Zm-7,11c2.52-.55,5.1-3.7,3.75-8.6l-0.06-.13a6.49,6.49,0,0,0-4.56-2.31,5.34,5.34,0,0,0-4.24,2.24l0,0.13c-0.62,4.89,2.43,8.08,5,8.67h0.09"/><g class="cls-5"><path class="cls-4" d="M114.33,194.58h20.31a6.49,6.49,0,0,0,5.07-2.44l40.4-40.72c-0.66-.59-9.28-7.19-9.92-7.87-13.89,15.18-28.33,21.67-46.62,24,1.54,7-2.47,15.81-10.31,21.07Z"/><path class="cls-4" d="M108.21,64.43a3.91,3.91,0,0,1,.68.82,1.28,1.28,0,0,1,0,1.31,2,2,0,0,1-.73.55c-1.13.6-2.16,1.33-3.25,2s-2.47,1.47-3.74,2.15c-1.51.8-3,1.56-4.57,2.33-6.22-13.14-6.4-28.15-3.16-43.18a2,2,0,0,1,.64-1.21,1.09,1.09,0,0,1,1.18,1.18c0.33,7.28.89,13.93,4,20.56a62.44,62.44,0,0,0,7.47,11.75c0.36,0.46.72,0.91,1.09,1.35C107.95,64.17,108.08,64.3,108.21,64.43Z"/><path class="cls-4" d="M151.8,109.18c-0.91-2.56-1.71-4.76-2.42-6.54l-0.37-.87a27.81,27.81,0,0,1-2.6-9.26c-0.87-13-7.75-24.35-14.4-35.36-2-3.34-4.12-6.83-6-10.29a66.56,66.56,0,0,1-5.26-13.38c-0.41-1.39-.85-2.83-1.35-4.34l0-.07c-0.76-2.3-3.88-1.58-3.89.84a255.6,255.6,0,0,1-2.58,33.25c-0.07.46-.11,0.91-0.16,1.35-0.09.85-.18,1.69-0.34,2.52A4.47,4.47,0,0,1,110,70.34l-0.28.2c-1.92,1.24-3.89,2.44-6.08,3.61s-4.21,2.17-6.33,3.22c-1.26.62-2.52,1.24-3.77,1.88-5.88,3-13.94,7.13-16.87,14.18C76,95.19,75.39,97,74.82,98.84a47.58,47.58,0,0,1-3,7.84c0.25-.12.5-0.25,0.71-0.37a2,2,0,1,1,1.94,3.54A76.24,76.24,0,0,1,66,113.68c-2.68,1.08-5.58,2.19-8.55,3.31a189,189,0,0,0-18.61,7.72c-2.77,1.24-3.9,1.24-4.4,2.39a4.62,4.62,0,0,0-.36,1.81,4.48,4.48,0,0,0,.23,1.6,6.09,6.09,0,0,0,2.33,2.54l1.15,0.85a6.2,6.2,0,0,0,.94.61,4.31,4.31,0,0,0,.64.26A4.12,4.12,0,0,1,40,135c0.21,0.1.36,0.28,0.57,0.38a8.69,8.69,0,0,1,.8.43,10.66,10.66,0,0,1,1.24.9l0.3,0.25a40.27,40.27,0,0,1,3.48,3.43,18.85,18.85,0,0,0,2.35,2.29c3.86,3,9.1,3.56,15.07,4a62.12,62.12,0,0,0,12.85,0c1-.12,2-0.32,2.93-0.53,1.26-.27,2.54-0.59,3.82-0.91,5.71-1.4,11.61-2.88,17.35-.69a2,2,0,0,1,1.17,2.61,2,2,0,0,1-2.6,1.16c-4.37-1.65-9.17-.59-14.26.68l1.35,0.43c0.62,0.18,1.28.37,2,.62,2.08,0.75,4.56,1.79,6.59,1.49,4.5-.64,10-2.32,13.62,0a11.7,11.7,0,0,1,3,3.06A28.36,28.36,0,0,1,113.3,157a5.34,5.34,0,0,0,5,2.62A67.07,67.07,0,0,0,163,137.28a2.17,2.17,0,0,0,.18-2.57C158,126.29,154.45,116.52,151.8,109.18ZM44.61,132.67a4.19,4.19,0,0,1-3.15,1.18,5.49,5.49,0,0,1-3.4-1.52,5.14,5.14,0,0,1-2.21-3,2.25,2.25,0,0,1,.22-1.38,2.93,2.93,0,0,1,1.1-1.06,4.81,4.81,0,0,1,4.26-.59,7.07,7.07,0,0,1,1.6,1,7.34,7.34,0,0,1,2.08,2.75A2,2,0,0,1,44.61,132.67ZM115,101.46a2.19,2.19,0,0,1-1.47,1.4,8.11,8.11,0,0,1-2.09.29c-1.64.11-3,.56-3.51,2.26a24.47,24.47,0,0,1-.68,2.61,4.61,4.61,0,0,1-3.45,2.57,5.73,5.73,0,0,1-3-.39,8.14,8.14,0,0,0-6.08.27c-0.58.27-.66,0.25-1.69,0.77a1.85,1.85,0,0,1-.31.22c-0.74.13-.57-0.35-0.57-0.48a2.48,2.48,0,0,1,.35-0.59,14.13,14.13,0,0,0,1.54-3.24c0.42-1.1.76-2.24,1.26-3.3a5.94,5.94,0,0,1,3.18-3.26,8.76,8.76,0,0,1,4.94,0c1.29,0.3,2.56.71,3.85,1a4.63,4.63,0,0,0,2.68-.34c1-.38,2.06-0.8,3.09-1.2a3,3,0,0,1,.68-0.2,1.18,1.18,0,0,1,.3,0A1.29,1.29,0,0,1,115,101.46Z"/></g></svg>